<?xml version="1.0" encoding="UTF-8"?>
<svg id="Capa_1" xmlns="http://www.w3.org/2000/svg" version="1.1" viewBox="0 0 565 563">
  <!-- Generator: Adobe Illustrator 29.5.0, SVG Export Plug-In . SVG Version: 2.1.0 Build 137)  -->
  <defs>
    <style>
      .st0 {
        fill: #4baddd;
      }

      .st1 {
        fill: #fefffe;
      }

      .st2 {
        fill: #56b158;
      }
    </style>
  </defs>
  <path class="st1" d="M490.32,116.52c-24.7,35.61,12.67,77.49-18.5,121.88-3.15,4.49-15.01,12.03-7.78,19.37,8.34,8.46,20.56-8.98,24.5-15.47,21.93-36.13,8.59-58.86,8.2-95.7-.08-7.35,4.52-24.24,12.52-26.25,3.2-.81,7.54,5.92,15.46,1.36,14.04-18.79,51.92-35.81,31.3-62.81-6.17-8.09-40.66-42.96-48.47-48.43-9.39-6.58-20.06-5.53-29.14.81-6.39,4.47-22.54,21.76-28.64,28.35-5.73,6.19-8.81,10.4-1.64,17.37-3.56,9.47-16.22,14.92-26.03,14.81-40.05-.48-65.27-16.07-103.03,12.34l-125.2,125.81c-2.41,7.72,7.91,13.11,13.62,7.79,40.32-35.62,76.38-82.16,116.9-116.79,11-9.4,24.48-16.41,39.23-17.78,32.47-3,71.74,17.47,94.97-12.59l1.86-.34,37.18,35.72v2.83c-1.78,2.36-5.84,5.57-7.33,7.72ZM454.96,279.28c6.17-4.91,6.1-16.5-2.99-16.45-4.01.02-18.67,12.22-26.36,14.86-11.73,4.02-20.5,4.58-32.5,1.13-43.71-12.55-90.79-52.59-137.75-56.06-76.21-5.63-111.06,32.66-159.02,83.34-3.58,4.96-.87,12.46,5.38,13.4,4.52.67,17.47-8.68,22.65-11,65.05-29.13,106.05-3.65,168.4,9.39,24.28,5.08,53.46,10.41,77,1.6,4.29-20.1-17.8-10.89-28.89-11.11-50.81-1.01-97.84-27.06-148.29-29.97-16.99-.98-34,2.55-50.57,5.67,16.37-19.65,39.56-35.05,64.44-41.71,67.02-17.94,114,26.06,172.14,48.12,10.94,4.15,21.42,7.47,33.46,6.43,2.91,2.99-1.68,3-3.58,4.91-40.38,40.55-80.12,68.96-141.75,64.91-73.19-4.81-143.08-77.32-210.89-19.89-37.61,31.85-60.95,65.88-22.62,109.53,20.77,23.66,54.53,57.87,78.13,78.57,34.16,29.97,61.43,24.35,92.8-4.85,47.09-43.83,89.41-93.2,136.85-136.76,8.07-9.51-1.74-20.11-11.58-12.33l-145.73,146.8c-39.32,28.35-60.06-5.62-85.06-30.06-16.24-15.87-34.95-32.28-50.08-48.9-13.97-15.34-23.06-26.81-16.71-49.07,6.07-21.26,48-54.09,69.94-58.32,37.06-7.15,93.16,27.25,131.4,36.02,99.93,22.93,159.81-30.83,221.79-98.2Z"/>
  <path class="st2" d="M454.96,279.28c-61.98,67.38-121.86,121.13-221.79,98.2-38.24-8.78-94.34-43.17-131.4-36.02-21.94,4.23-63.87,37.06-69.94,58.32-6.35,22.26,2.74,33.73,16.71,49.07,15.13,16.62,33.84,33.02,50.08,48.9,25.01,24.44,45.74,58.41,85.06,30.06l145.73-146.8c9.84-7.78,19.65,2.82,11.58,12.33-47.44,43.55-89.76,92.92-136.85,136.76-31.37,29.2-58.64,34.82-92.8,4.85-23.6-20.71-57.36-54.91-78.13-78.57-38.33-43.65-14.98-77.68,22.62-109.53,67.81-57.43,137.7,15.08,210.89,19.89,61.63,4.05,101.37-24.36,141.75-64.91,1.9-1.91,6.49-1.92,3.58-4.91-12.05,1.05-22.53-2.28-33.46-6.43-58.15-22.06-105.12-66.06-172.14-48.12-24.88,6.66-48.07,22.06-64.44,41.71,16.58-3.12,33.59-6.65,50.57-5.67,50.45,2.9,97.48,28.95,148.29,29.97,11.09.22,33.18-8.99,28.89,11.11-23.54,8.81-52.72,3.48-77-1.6-62.35-13.04-103.35-38.52-168.4-9.39-5.18,2.32-18.13,11.68-22.65,11-6.25-.93-8.96-8.43-5.38-13.4,47.96-50.69,82.81-88.97,159.02-83.34,46.96,3.47,94.04,43.51,137.75,56.06,12,3.45,20.77,2.89,32.5-1.13,7.69-2.64,22.34-14.84,26.36-14.86,9.09-.05,9.16,11.54,2.99,16.45Z"/>
  <path class="st0" d="M490.32,116.52c1.49-2.15,5.56-5.36,7.34-7.72v-2.83s-37.18-35.72-37.18-35.72l-1.86.34c-23.23,30.06-62.5,9.59-94.97,12.59-14.75,1.36-28.23,8.38-39.23,17.78-40.53,34.63-76.58,81.17-116.9,116.79-5.71,5.32-16.03-.07-13.62-7.79l125.2-125.81c37.76-28.41,62.98-12.82,103.03-12.34,9.81.12,22.47-5.34,26.03-14.81-7.18-6.98-4.09-11.18,1.64-17.37,6.1-6.59,22.24-23.88,28.64-28.35,9.07-6.34,19.74-7.39,29.14-.81,7.81,5.48,42.3,40.34,48.47,48.43,20.61,27-17.27,44.02-31.3,62.81-7.92,4.56-12.26-2.16-15.46-1.36-7.99,2.01-12.59,18.9-12.52,26.25.39,36.84,13.73,59.57-8.2,95.7-3.94,6.49-16.16,23.93-24.5,15.47-7.23-7.34,4.62-14.88,7.78-19.37,31.16-44.38-6.2-86.27,18.5-121.88ZM469.24,44.1c-1.32,1.34-3.28,1.92-4.54,3.37l.03,2.9,54.22,54.13c4.55-6.58,25.49-22.17,27.22-28.43.9-3.25-1.2-4.88-2.97-7.2-3.78-4.94-44.16-45.91-47.37-46.79-6.93-1.9-21.44,16.81-26.59,22.02Z"/>
  <path class="st1" d="M469.24,44.1c5.14-5.21,19.66-23.93,26.59-22.02,3.21.88,43.58,41.85,47.37,46.79,1.78,2.32,3.87,3.95,2.97,7.2-1.73,6.26-22.67,21.85-27.22,28.43l-54.22-54.13-.03-2.9c1.26-1.46,3.22-2.03,4.54-3.37Z"/>
</svg>