<?xml version="1.0" encoding="UTF-8"?>
<svg id="Capa_1" xmlns="http://www.w3.org/2000/svg" version="1.1" viewBox="0 0 1875.99 563">
  <!-- Generator: Adobe Illustrator 29.5.1, SVG Export Plug-In . SVG Version: 2.1.0 Build 141)  -->
  <defs>
    <style>
      .st0 {
        fill: #4baddd;
      }

      .st1 {
        fill: #fefffe;
      }

      .st2 {
        fill: #56b158;
      }
    </style>
  </defs>
  <g>
    <path class="st1" d="M490.32,117.57c-24.7,35.61,12.67,77.49-18.5,121.88-3.15,4.49-15.01,12.03-7.78,19.37,8.34,8.46,20.56-8.98,24.5-15.47,21.93-36.13,8.59-58.86,8.2-95.7-.08-7.35,4.52-24.24,12.52-26.25,3.2-.81,7.54,5.92,15.46,1.36,14.04-18.79,51.92-35.81,31.3-62.81-6.17-8.09-40.66-42.96-48.47-48.43-9.39-6.58-20.06-5.53-29.14.81-6.39,4.47-22.54,21.76-28.64,28.35-5.73,6.19-8.81,10.4-1.64,17.37-3.56,9.47-16.22,14.92-26.03,14.81-40.05-.48-65.27-16.07-103.03,12.34l-125.2,125.81c-2.41,7.72,7.91,13.11,13.62,7.79,40.32-35.62,76.38-82.16,116.9-116.79,11-9.4,24.48-16.41,39.23-17.78,32.47-3,71.74,17.47,94.97-12.59l1.86-.34,37.18,35.72v2.83c-1.78,2.36-5.84,5.57-7.33,7.72h.02ZM454.96,280.33c6.17-4.91,6.1-16.5-2.99-16.45-4.01.02-18.67,12.22-26.36,14.86-11.73,4.02-20.5,4.58-32.5,1.13-43.71-12.55-90.79-52.59-137.75-56.06-76.21-5.63-111.06,32.66-159.02,83.34-3.58,4.96-.87,12.46,5.38,13.4,4.52.67,17.47-8.68,22.65-11,65.05-29.13,106.05-3.65,168.4,9.39,24.28,5.08,53.46,10.41,77,1.6,4.29-20.1-17.8-10.89-28.89-11.11-50.81-1.01-97.84-27.06-148.29-29.97-16.99-.98-34,2.55-50.57,5.67,16.37-19.65,39.56-35.05,64.44-41.71,67.02-17.94,114,26.06,172.14,48.12,10.94,4.15,21.42,7.47,33.46,6.43,2.91,2.99-1.68,3-3.58,4.91-40.38,40.55-80.12,68.96-141.75,64.91-73.19-4.81-143.08-77.32-210.89-19.89-37.61,31.85-60.95,65.88-22.62,109.53,20.77,23.66,54.53,57.87,78.13,78.57,34.16,29.97,61.43,24.35,92.8-4.85,47.09-43.83,89.41-93.2,136.85-136.76,8.07-9.51-1.74-20.11-11.58-12.33l-145.73,146.8c-39.32,28.35-60.06-5.62-85.06-30.06-16.24-15.87-34.95-32.28-50.08-48.9-13.97-15.34-23.06-26.81-16.71-49.07,6.07-21.26,48-54.09,69.94-58.32,37.06-7.15,93.16,27.25,131.4,36.02,99.93,22.93,159.81-30.83,221.79-98.2h-.01Z"/>
    <path class="st2" d="M454.96,280.33c-61.98,67.38-121.86,121.13-221.79,98.2-38.24-8.78-94.34-43.17-131.4-36.02-21.94,4.23-63.87,37.06-69.94,58.32-6.35,22.26,2.74,33.73,16.71,49.07,15.13,16.62,33.84,33.02,50.08,48.9,25.01,24.44,45.74,58.41,85.06,30.06l145.73-146.8c9.84-7.78,19.65,2.82,11.58,12.33-47.44,43.55-89.76,92.92-136.85,136.76-31.37,29.2-58.64,34.82-92.8,4.85-23.6-20.71-57.36-54.91-78.13-78.57-38.33-43.65-14.98-77.68,22.62-109.53,67.81-57.43,137.7,15.08,210.89,19.89,61.63,4.05,101.37-24.36,141.75-64.91,1.9-1.91,6.49-1.92,3.58-4.91-12.05,1.05-22.53-2.28-33.46-6.43-58.15-22.06-105.12-66.06-172.14-48.12-24.88,6.66-48.07,22.06-64.44,41.71,16.58-3.12,33.59-6.65,50.57-5.67,50.45,2.9,97.48,28.95,148.29,29.97,11.09.22,33.18-8.99,28.89,11.11-23.54,8.81-52.72,3.48-77-1.6-62.35-13.04-103.35-38.52-168.4-9.39-5.18,2.32-18.13,11.68-22.65,11-6.25-.93-8.96-8.43-5.38-13.4,47.96-50.69,82.81-88.97,159.02-83.34,46.96,3.47,94.04,43.51,137.75,56.06,12,3.45,20.77,2.89,32.5-1.13,7.69-2.64,22.34-14.84,26.36-14.86,9.09-.05,9.16,11.54,2.99,16.45h.01Z"/>
    <path class="st0" d="M490.32,117.57c1.49-2.15,5.56-5.36,7.34-7.72v-2.83l-37.18-35.72-1.86.34c-23.23,30.06-62.5,9.59-94.97,12.59-14.75,1.36-28.23,8.38-39.23,17.78-40.53,34.63-76.58,81.17-116.9,116.79-5.71,5.32-16.03-.07-13.62-7.79l125.2-125.81c37.76-28.41,62.98-12.82,103.03-12.34,9.81.12,22.47-5.34,26.03-14.81-7.18-6.98-4.09-11.18,1.64-17.37,6.1-6.59,22.24-23.88,28.64-28.35,9.07-6.34,19.74-7.39,29.14-.81,7.81,5.48,42.3,40.34,48.47,48.43,20.61,27-17.27,44.02-31.3,62.81-7.92,4.56-12.26-2.16-15.46-1.36-7.99,2.01-12.59,18.9-12.52,26.25.39,36.84,13.73,59.57-8.2,95.7-3.94,6.49-16.16,23.93-24.5,15.47-7.23-7.34,4.62-14.88,7.78-19.37,31.16-44.38-6.2-86.27,18.5-121.88h-.03ZM469.24,45.15c-1.32,1.34-3.28,1.92-4.54,3.37l.03,2.9,54.22,54.13c4.55-6.58,25.49-22.17,27.22-28.43.9-3.25-1.2-4.88-2.97-7.2-3.78-4.94-44.16-45.91-47.37-46.79-6.93-1.9-21.44,16.81-26.59,22.02h0Z"/>
    <path class="st1" d="M469.24,45.15c5.14-5.21,19.66-23.93,26.59-22.02,3.21.88,43.58,41.85,47.37,46.79,1.78,2.32,3.87,3.95,2.97,7.2-1.73,6.26-22.67,21.85-27.22,28.43l-54.22-54.13-.03-2.9c1.26-1.46,3.22-2.03,4.54-3.37h0Z"/>
  </g>
  <g>
    <path class="st2" d="M573.82,356.9v-172.11h24.03v172.11h-24.03ZM588.02,356.9v-22.37h46.64c12.78,0,21.84-2.44,27.17-7.34,5.33-4.89,7.99-11.32,7.99-19.29v-.35c0-8.52-2.27-15.33-6.81-20.42-4.54-5.09-12.01-7.63-22.43-7.63h-52.56v-21.78h52.56c8.92,0,15.64-2.11,20.18-6.33,4.54-4.22,6.81-10.4,6.81-18.52,0-8.6-2.53-15.03-7.58-19.29-5.05-4.26-12.63-6.39-22.73-6.39h-49.24v-22.37h53.62c16.97,0,29.59,4.22,37.88,12.67,8.29,8.44,12.43,19.77,12.43,33.97,0,8.6-2.53,16.47-7.58,23.61-5.05,7.14-12.98,11.7-23.79,13.67,10.65,1.58,18.92,6.27,24.8,14.09,5.88,7.81,8.82,16.77,8.82,26.87v.35c0,14.05-4.54,25.37-13.61,33.97-9.08,8.6-21.39,12.9-36.93,12.9h-55.63Z"/>
    <path class="st2" d="M727.93,208.94v-24.15h24.15v24.15h-24.15ZM727.93,356.9v-122.87h24.15v122.87h-24.15Z"/>
    <path class="st2" d="M835.88,358.68c-16.1,0-28.57-4.68-37.4-14.03-8.84-9.35-13.26-22.51-13.26-39.48v-20c0-16.81,4.42-29.83,13.26-39.06,8.84-9.23,21.31-13.85,37.4-13.85s28.57,4.62,37.4,13.85c8.84,9.23,13.26,22.25,13.26,39.06v20.36c0,16.89-4.42,29.97-13.26,39.24-8.84,9.27-21.31,13.91-37.4,13.91ZM835.88,335.71c8.44,0,14.97-2.64,19.59-7.93,4.62-5.29,6.92-12.7,6.92-22.25v-20.36c0-9.55-2.31-16.93-6.92-22.14-4.62-5.21-11.15-7.81-19.59-7.81s-14.88,2.6-19.53,7.81c-4.66,5.21-6.98,12.59-6.98,22.14v20.36c0,9.55,2.33,16.97,6.98,22.25,4.66,5.29,11.17,7.93,19.53,7.93Z"/>
    <path class="st0" d="M920.87,406.85v-172.82h24.15v172.82h-24.15ZM975.91,358.68c-7.66,0-14.32-1.83-20-5.5-5.68-3.67-9.87-8.86-12.55-15.57l1.66-25.69c0,5.29.95,9.79,2.84,13.49,1.89,3.71,4.63,6.55,8.23,8.52,3.59,1.97,7.95,2.96,13.08,2.96,7.97,0,14.14-2.43,18.52-7.28,4.38-4.85,6.57-11.7,6.57-20.54v-26.63c0-9-2.19-15.98-6.57-20.95s-10.55-7.46-18.52-7.46c-5.13,0-9.49.95-13.08,2.84-3.59,1.89-6.33,4.66-8.23,8.29-1.89,3.63-2.84,8.05-2.84,13.26l-2.49-23.67c3.71-7.18,8.56-12.72,14.56-16.63,6-3.91,12.67-5.86,20-5.86,13.18,0,23.36,4.36,30.54,13.08,7.18,8.72,10.77,21.05,10.77,36.99v26.75c0,15.7-3.71,27.9-11.13,36.58-7.42,8.68-17.87,13.02-31.37,13.02Z"/>
    <path class="st0" d="M1076.88,184.79v140.38c0,2.92.65,5.21,1.95,6.87s3.14,2.49,5.5,2.49h11.36v22.96h-14.2c-9.08,0-16.14-2.84-21.19-8.52-5.05-5.68-7.58-13.69-7.58-24.03v-140.15h24.15Z"/>
    <path class="st0" d="M1161.04,358.68c-15.07,0-26.38-3.12-33.91-9.35-7.54-6.23-11.3-15.78-11.3-28.65s3.45-21.37,10.36-27.4c6.9-6.04,17.26-9.06,31.07-9.06h34.92l1.66,19.41h-36.46c-6.23,0-10.93,1.4-14.08,4.2-3.16,2.8-4.74,7.08-4.74,12.84,0,6.23,2.09,10.85,6.27,13.85,4.18,3,10.46,4.5,18.82,4.5,9.15,0,16.02-.99,20.6-2.96,4.58-1.97,6.87-5.05,6.87-9.23l2.49,17.28c-2.13,3.31-4.78,6.04-7.93,8.17-3.16,2.13-6.77,3.73-10.83,4.79-4.07,1.07-8.66,1.6-13.79,1.6ZM1191.11,356.9v-77.89c0-8.05-2.15-14.3-6.45-18.76-4.3-4.46-10.4-6.69-18.29-6.69-4.81,0-9.57.73-14.26,2.19-4.7,1.46-8.9,3.57-12.61,6.33l-17.64-12.07c4.66-5.6,10.79-9.96,18.41-13.08,7.61-3.12,16.08-4.68,25.39-4.68,15.39,0,27.3,3.99,35.75,11.96,8.44,7.97,12.67,19.22,12.67,33.73v78.95h-22.96ZM1168.73,210.36l-15.15-12.19,33.85-42.02,17.4,14.44-36.1,39.77Z"/>
    <path class="st0" d="M1294.21,358.68c-10.89,0-20.77-1.6-29.65-4.79-8.88-3.2-16.83-7.99-23.85-14.38l14.32-17.64c6.71,5.05,13.32,8.84,19.83,11.36,6.51,2.53,12.96,3.79,19.35,3.79,9.55,0,16.71-1.48,21.48-4.44,4.77-2.96,7.16-7.4,7.16-13.32,0-4.58-1.6-7.81-4.79-9.71-3.2-1.89-7.38-3.14-12.55-3.73-5.17-.59-10.71-1.08-16.63-1.48-4.97-.39-9.9-1.01-14.8-1.83-4.89-.83-9.35-2.33-13.38-4.5-4.02-2.17-7.24-5.39-9.65-9.65-2.41-4.26-3.61-9.98-3.61-17.16,0-13.02,3.98-22.77,11.96-29.24,7.97-6.47,19.84-9.71,35.63-9.71,9.63,0,18.58,1.3,26.87,3.91,8.29,2.6,16.06,6.59,23.32,11.96l-14.56,17.64c-6.16-3.94-12.21-6.9-18.17-8.88-5.96-1.97-11.78-2.96-17.46-2.96-8.21,0-14.36,1.4-18.47,4.2-4.1,2.8-6.16,7-6.16,12.61,0,3.71,1.42,6.37,4.26,7.99,2.84,1.62,6.59,2.66,11.25,3.14,4.65.47,9.67.91,15.03,1.3,5.13.32,10.32.89,15.57,1.72,5.25.83,10.08,2.43,14.5,4.79,4.42,2.37,7.97,5.88,10.65,10.54,2.68,4.66,4.02,11.01,4.02,19.06,0,13.18-4.28,23.04-12.84,29.59-8.56,6.55-21.45,9.82-38.65,9.82Z"/>
    <path class="st0" d="M1367,255.81v-21.78h55.4v21.78h-55.4ZM1408.43,357.49c-10.1,0-17.42-2.8-21.96-8.4-4.54-5.6-6.81-13.65-6.81-24.15v-126.65h24.15v126.89c0,2.92.59,5.21,1.78,6.87s2.92,2.49,5.21,2.49h11.6v22.96h-13.97Z"/>
    <path class="st0" d="M1455.54,208.94v-24.15h24.15v24.15h-24.15ZM1455.54,356.9v-122.87h24.15v122.87h-24.15Z"/>
    <path class="st0" d="M1565.98,358.68c-16.89,0-29.97-4.66-39.24-13.97-9.27-9.31-13.91-22.45-13.91-39.42v-20.24c0-16.81,4.63-29.81,13.91-39,9.27-9.19,22.35-13.79,39.24-13.79,9.63,0,18.31,1.7,26.04,5.09,7.73,3.39,13.89,8.25,18.47,14.56l-17.4,15.62c-3.39-3.94-7.42-6.98-12.07-9.11-4.66-2.13-9.55-3.2-14.68-3.2-9.31,0-16.53,2.6-21.66,7.81-5.13,5.21-7.69,12.55-7.69,22.02v20.24c0,9.71,2.56,17.2,7.69,22.49,5.13,5.29,12.35,7.93,21.66,7.93,5.13,0,10.02-1.14,14.68-3.43,4.66-2.29,8.68-5.52,12.07-9.71l17.4,16.81c-4.58,6.16-10.75,10.91-18.53,14.26-7.77,3.35-16.43,5.03-25.98,5.03Z"/>
    <path class="st0" d="M1684.23,358.68c-16.1,0-28.57-4.68-37.4-14.03-8.84-9.35-13.26-22.51-13.26-39.48v-20c0-16.81,4.42-29.83,13.26-39.06,8.84-9.23,21.31-13.85,37.4-13.85s28.57,4.62,37.4,13.85c8.84,9.23,13.26,22.25,13.26,39.06v20.36c0,16.89-4.42,29.97-13.26,39.24-8.84,9.27-21.31,13.91-37.4,13.91ZM1684.23,335.71c8.44,0,14.97-2.64,19.59-7.93,4.62-5.29,6.92-12.7,6.92-22.25v-20.36c0-9.55-2.31-16.93-6.92-22.14-4.62-5.21-11.15-7.81-19.59-7.81s-14.88,2.6-19.53,7.81c-4.66,5.21-6.98,12.59-6.98,22.14v20.36c0,9.55,2.33,16.97,6.98,22.25,4.66,5.29,11.17,7.93,19.53,7.93Z"/>
    <path class="st0" d="M1812.66,358.68c-10.89,0-20.77-1.6-29.65-4.79-8.88-3.2-16.83-7.99-23.85-14.38l14.32-17.64c6.71,5.05,13.32,8.84,19.83,11.36,6.51,2.53,12.96,3.79,19.35,3.79,9.55,0,16.71-1.48,21.48-4.44,4.77-2.96,7.16-7.4,7.16-13.32,0-4.58-1.6-7.81-4.79-9.71-3.2-1.89-7.38-3.14-12.55-3.73-5.17-.59-10.71-1.08-16.63-1.48-4.97-.39-9.9-1.01-14.8-1.83-4.89-.83-9.35-2.33-13.38-4.5-4.02-2.17-7.24-5.39-9.65-9.65-2.41-4.26-3.61-9.98-3.61-17.16,0-13.02,3.98-22.77,11.96-29.24,7.97-6.47,19.84-9.71,35.63-9.71,9.63,0,18.58,1.3,26.87,3.91,8.29,2.6,16.06,6.59,23.32,11.96l-14.56,17.64c-6.16-3.94-12.21-6.9-18.17-8.88-5.96-1.97-11.78-2.96-17.46-2.96-8.21,0-14.36,1.4-18.47,4.2-4.1,2.8-6.16,7-6.16,12.61,0,3.71,1.42,6.37,4.26,7.99,2.84,1.62,6.59,2.66,11.25,3.14,4.65.47,9.67.91,15.03,1.3,5.13.32,10.32.89,15.57,1.72,5.25.83,10.08,2.43,14.5,4.79,4.42,2.37,7.97,5.88,10.65,10.54,2.68,4.66,4.02,11.01,4.02,19.06,0,13.18-4.28,23.04-12.84,29.59-8.56,6.55-21.45,9.82-38.65,9.82Z"/>
  </g>
</svg>